<svg id="Capa_1" data-name="Capa 1" xmlns="http://www.w3.org/2000/svg" viewBox="0 0 65.08 64"><defs><style>.cls-1{fill:#9b0814;}</style></defs><title>corporation</title><path class="cls-1" d="M271.46,217.76H259.53v-8.68a1.09,1.09,0,0,0-1.09-1.08H221.56a1.09,1.09,0,0,0-1.09,1.08v15.19H208.54a1.08,1.08,0,0,0-1.08,1.09v44.47a1.09,1.09,0,1,0,2.17,0V226.44h10.84v44.48a1.09,1.09,0,0,0,1.09,1.08h36.88a1.09,1.09,0,0,0,1.09-1.08v-51h10.84v49.9a1.09,1.09,0,1,0,2.17,0v-51A1.08,1.08,0,0,0,271.46,217.76Zm-32.54,52.07h-4.34v-9.76h4.34Zm6.5,0h-4.34v-9.76h4.34Zm11.94,0h-9.77V259a1.08,1.08,0,0,0-1.08-1.08h-13a1.08,1.08,0,0,0-1.08,1.08v10.85h-9.77V210.17h34.72Z" transform="translate(-207.46 -208)"/><path class="cls-1" d="M232.41,212.34H225.9a1.08,1.08,0,0,0-1.09,1.08v6.51A1.09,1.09,0,0,0,225.9,221h6.51a1.08,1.08,0,0,0,1.08-1.09v-6.51A1.08,1.08,0,0,0,232.41,212.34Zm-1.09,6.51H227v-4.34h4.34Z" transform="translate(-207.46 -208)"/><path class="cls-1" d="M243.25,212.34h-6.5a1.08,1.08,0,0,0-1.09,1.08v6.51a1.09,1.09,0,0,0,1.09,1.09h6.5a1.09,1.09,0,0,0,1.09-1.09v-6.51A1.08,1.08,0,0,0,243.25,212.34Zm-1.08,6.51h-4.34v-4.34h4.34Z" transform="translate(-207.46 -208)"/><path class="cls-1" d="M254.1,212.34h-6.51a1.08,1.08,0,0,0-1.08,1.08v6.51a1.08,1.08,0,0,0,1.08,1.09h6.51a1.09,1.09,0,0,0,1.09-1.09v-6.51A1.08,1.08,0,0,0,254.1,212.34ZM253,218.85h-4.34v-4.34H253Z" transform="translate(-207.46 -208)"/><path class="cls-1" d="M232.41,223.19H225.9a1.08,1.08,0,0,0-1.09,1.08v6.51a1.08,1.08,0,0,0,1.09,1.08h6.51a1.08,1.08,0,0,0,1.08-1.08v-6.51A1.08,1.08,0,0,0,232.41,223.19Zm-1.09,6.5H227v-4.33h4.34Z" transform="translate(-207.46 -208)"/><path class="cls-1" d="M243.25,223.19h-6.5a1.08,1.08,0,0,0-1.09,1.08v6.51a1.08,1.08,0,0,0,1.09,1.08h6.5a1.08,1.08,0,0,0,1.09-1.08v-6.51A1.08,1.08,0,0,0,243.25,223.19Zm-1.08,6.5h-4.34v-4.33h4.34Z" transform="translate(-207.46 -208)"/><path class="cls-1" d="M254.1,223.19h-6.51a1.08,1.08,0,0,0-1.08,1.08v6.51a1.08,1.08,0,0,0,1.08,1.08h6.51a1.08,1.08,0,0,0,1.09-1.08v-6.51A1.08,1.08,0,0,0,254.1,223.19Zm-1.08,6.5h-4.34v-4.33H253Z" transform="translate(-207.46 -208)"/><path class="cls-1" d="M232.41,234H225.9a1.09,1.09,0,0,0-1.09,1.09v6.51a1.08,1.08,0,0,0,1.09,1.08h6.51a1.08,1.08,0,0,0,1.08-1.08v-6.51A1.08,1.08,0,0,0,232.41,234Zm-1.09,6.51H227V236.2h4.34Z" transform="translate(-207.46 -208)"/><path class="cls-1" d="M243.25,234h-6.5a1.09,1.09,0,0,0-1.09,1.09v6.51a1.08,1.08,0,0,0,1.09,1.08h6.5a1.08,1.08,0,0,0,1.09-1.08v-6.51A1.09,1.09,0,0,0,243.25,234Zm-1.08,6.51h-4.34V236.2h4.34Z" transform="translate(-207.46 -208)"/><path class="cls-1" d="M254.1,234h-6.51a1.08,1.08,0,0,0-1.08,1.09v6.51a1.08,1.08,0,0,0,1.08,1.08h6.51a1.08,1.08,0,0,0,1.09-1.08v-6.51A1.09,1.09,0,0,0,254.1,234ZM253,240.54h-4.34V236.2H253Z" transform="translate(-207.46 -208)"/><path class="cls-1" d="M232.41,244.88H225.9a1.09,1.09,0,0,0-1.09,1.09v6.5a1.09,1.09,0,0,0,1.09,1.09h6.51a1.08,1.08,0,0,0,1.08-1.09V246A1.08,1.08,0,0,0,232.41,244.88Zm-1.09,6.51H227v-4.34h4.34Z" transform="translate(-207.46 -208)"/><path class="cls-1" d="M243.25,244.88h-6.5a1.09,1.09,0,0,0-1.09,1.09v6.5a1.09,1.09,0,0,0,1.09,1.09h6.5a1.09,1.09,0,0,0,1.09-1.09V246A1.09,1.09,0,0,0,243.25,244.88Zm-1.08,6.51h-4.34v-4.34h4.34Z" transform="translate(-207.46 -208)"/><path class="cls-1" d="M254.1,244.88h-6.51a1.08,1.08,0,0,0-1.08,1.09v6.5a1.08,1.08,0,0,0,1.08,1.09h6.51a1.09,1.09,0,0,0,1.09-1.09V246A1.09,1.09,0,0,0,254.1,244.88ZM253,251.39h-4.34v-4.34H253Z" transform="translate(-207.46 -208)"/><path class="cls-1" d="M214,228.61h-1.09a1.08,1.08,0,0,0-1.08,1.08v1.09a1.08,1.08,0,0,0,1.08,1.08H214a1.08,1.08,0,0,0,1.08-1.08v-1.09A1.08,1.08,0,0,0,214,228.61Z" transform="translate(-207.46 -208)"/><path class="cls-1" d="M218.31,228.61h-1.09a1.08,1.08,0,0,0-1.08,1.08v1.09a1.08,1.08,0,0,0,1.08,1.08h1.09a1.08,1.08,0,0,0,1.08-1.08v-1.09A1.09,1.09,0,0,0,218.31,228.61Z" transform="translate(-207.46 -208)"/><path class="cls-1" d="M214,233h-1.09A1.08,1.08,0,0,0,211.8,234v1.09a1.08,1.08,0,0,0,1.08,1.08H214a1.08,1.08,0,0,0,1.08-1.08V234A1.08,1.08,0,0,0,214,233Z" transform="translate(-207.46 -208)"/><path class="cls-1" d="M218.31,233h-1.09a1.08,1.08,0,0,0-1.08,1.08v1.09a1.08,1.08,0,0,0,1.08,1.08h1.09a1.08,1.08,0,0,0,1.08-1.08V234A1.08,1.08,0,0,0,218.31,233Z" transform="translate(-207.46 -208)"/><path class="cls-1" d="M214,237.29h-1.09a1.08,1.08,0,0,0-1.08,1.08v1.09a1.08,1.08,0,0,0,1.08,1.08H214a1.08,1.08,0,0,0,1.08-1.08v-1.09A1.08,1.08,0,0,0,214,237.29Z" transform="translate(-207.46 -208)"/><path class="cls-1" d="M218.31,237.29h-1.09a1.08,1.08,0,0,0-1.08,1.08v1.09a1.08,1.08,0,0,0,1.08,1.08h1.09a1.08,1.08,0,0,0,1.08-1.08v-1.09A1.08,1.08,0,0,0,218.31,237.29Z" transform="translate(-207.46 -208)"/><path class="cls-1" d="M214,241.63h-1.09a1.08,1.08,0,0,0-1.08,1.08v1.09a1.08,1.08,0,0,0,1.08,1.08H214a1.08,1.08,0,0,0,1.08-1.08v-1.09A1.08,1.08,0,0,0,214,241.63Z" transform="translate(-207.46 -208)"/><path class="cls-1" d="M218.31,241.63h-1.09a1.08,1.08,0,0,0-1.08,1.08v1.09a1.08,1.08,0,0,0,1.08,1.08h1.09a1.08,1.08,0,0,0,1.08-1.08v-1.09A1.08,1.08,0,0,0,218.31,241.63Z" transform="translate(-207.46 -208)"/><path class="cls-1" d="M214,246h-1.09a1.08,1.08,0,0,0-1.08,1.08v1.09a1.08,1.08,0,0,0,1.08,1.08H214a1.08,1.08,0,0,0,1.08-1.08v-1.09A1.08,1.08,0,0,0,214,246Z" transform="translate(-207.46 -208)"/><path class="cls-1" d="M218.31,246h-1.09a1.08,1.08,0,0,0-1.08,1.08v1.09a1.08,1.08,0,0,0,1.08,1.08h1.09a1.09,1.09,0,0,0,1.08-1.08v-1.09A1.08,1.08,0,0,0,218.31,246Z" transform="translate(-207.46 -208)"/><path class="cls-1" d="M214,250.31h-1.09a1.08,1.08,0,0,0-1.08,1.08v1.08a1.08,1.08,0,0,0,1.08,1.09H214a1.08,1.08,0,0,0,1.08-1.09v-1.08A1.08,1.08,0,0,0,214,250.31Z" transform="translate(-207.46 -208)"/><path class="cls-1" d="M218.31,250.31h-1.09a1.08,1.08,0,0,0-1.08,1.08v1.08a1.08,1.08,0,0,0,1.08,1.09h1.09a1.09,1.09,0,0,0,1.08-1.09v-1.08A1.08,1.08,0,0,0,218.31,250.31Z" transform="translate(-207.46 -208)"/><path class="cls-1" d="M214,254.64h-1.09a1.08,1.08,0,0,0-1.08,1.09v1.08a1.08,1.08,0,0,0,1.08,1.09H214a1.08,1.08,0,0,0,1.08-1.09v-1.08A1.08,1.08,0,0,0,214,254.64Z" transform="translate(-207.46 -208)"/><path class="cls-1" d="M218.31,254.64h-1.09a1.08,1.08,0,0,0-1.08,1.09v1.08a1.08,1.08,0,0,0,1.08,1.09h1.09a1.09,1.09,0,0,0,1.08-1.09v-1.08A1.09,1.09,0,0,0,218.31,254.64Z" transform="translate(-207.46 -208)"/><path class="cls-1" d="M214,259h-1.09a1.08,1.08,0,0,0-1.08,1.09v1.08a1.08,1.08,0,0,0,1.08,1.09H214a1.08,1.08,0,0,0,1.08-1.09v-1.08A1.08,1.08,0,0,0,214,259Z" transform="translate(-207.46 -208)"/><path class="cls-1" d="M218.31,259h-1.09a1.08,1.08,0,0,0-1.08,1.09v1.08a1.08,1.08,0,0,0,1.08,1.09h1.09a1.09,1.09,0,0,0,1.08-1.09v-1.08A1.09,1.09,0,0,0,218.31,259Z" transform="translate(-207.46 -208)"/><path class="cls-1" d="M214,263.32h-1.09a1.08,1.08,0,0,0-1.08,1.09v1.08a1.08,1.08,0,0,0,1.08,1.09H214a1.08,1.08,0,0,0,1.08-1.09v-1.08A1.08,1.08,0,0,0,214,263.32Z" transform="translate(-207.46 -208)"/><path class="cls-1" d="M218.31,263.32h-1.09a1.08,1.08,0,0,0-1.08,1.09v1.08a1.08,1.08,0,0,0,1.08,1.09h1.09a1.09,1.09,0,0,0,1.08-1.09v-1.08A1.09,1.09,0,0,0,218.31,263.32Z" transform="translate(-207.46 -208)"/><path class="cls-1" d="M267.12,222.1h-4.34a1.09,1.09,0,0,0-1.09,1.09v4.34a1.09,1.09,0,0,0,1.09,1.08h4.34a1.08,1.08,0,0,0,1.08-1.08v-4.34A1.08,1.08,0,0,0,267.12,222.1ZM266,226.44h-2.17v-2.17H266Z" transform="translate(-207.46 -208)"/><path class="cls-1" d="M267.12,230.78h-4.34a1.09,1.09,0,0,0-1.09,1.08v4.34a1.09,1.09,0,0,0,1.09,1.09h4.34a1.08,1.08,0,0,0,1.08-1.09v-4.34A1.08,1.08,0,0,0,267.12,230.78ZM266,235.12h-2.17V233H266Z" transform="translate(-207.46 -208)"/><path class="cls-1" d="M267.12,239.46h-4.34a1.08,1.08,0,0,0-1.09,1.08v4.34a1.09,1.09,0,0,0,1.09,1.09h4.34a1.08,1.08,0,0,0,1.08-1.09v-4.34A1.08,1.08,0,0,0,267.12,239.46ZM266,243.8h-2.17v-2.17H266Z" transform="translate(-207.46 -208)"/><path class="cls-1" d="M267.12,248.14h-4.34a1.08,1.08,0,0,0-1.09,1.08v4.34a1.08,1.08,0,0,0,1.09,1.08h4.34a1.08,1.08,0,0,0,1.08-1.08v-4.34A1.08,1.08,0,0,0,267.12,248.14ZM266,252.47h-2.17v-2.16H266Z" transform="translate(-207.46 -208)"/><path class="cls-1" d="M267.12,256.81h-4.34a1.09,1.09,0,0,0-1.09,1.09v4.34a1.08,1.08,0,0,0,1.09,1.08h4.34a1.08,1.08,0,0,0,1.08-1.08V257.9A1.08,1.08,0,0,0,267.12,256.81ZM266,261.15h-2.17V259H266Z" transform="translate(-207.46 -208)"/></svg>