<svg id="Capa_1" data-name="Capa 1" xmlns="http://www.w3.org/2000/svg" viewBox="0 0 73.3 64"><defs><style>.cls-1{fill:#9b0814;}</style></defs><title>loja</title><path class="cls-1" d="M260.13,247.55h-10a5,5,0,0,0-4.95,4.95v7.63a5,5,0,0,0,4.95,4.95h10a5,5,0,0,0,4.94-4.95V252.5A5,5,0,0,0,260.13,247.55Zm1.35,12.58a1.36,1.36,0,0,1-1.35,1.35h-10a1.35,1.35,0,0,1-1.35-1.35V252.5a1.35,1.35,0,0,1,1.35-1.35h10a1.35,1.35,0,0,1,1.35,1.35Z" transform="translate(-208.05 -212.7)"/><path class="cls-1" d="M281.35,233.67a1.58,1.58,0,0,0-.24-.88l-10.9-19.18a1.83,1.83,0,0,0-1.56-.91H220.74a1.76,1.76,0,0,0-1.56.91l-10.89,19.18a1.76,1.76,0,0,0-.24.88,10.5,10.5,0,0,0,6.29,9.61V274.9a1.81,1.81,0,0,0,1.8,1.8h57.11a1.8,1.8,0,0,0,1.79-1.8V243.51a1.21,1.21,0,0,0,0-.2A10.54,10.54,0,0,0,281.35,233.67Zm-59.57-17.36H267.6l8.52,15H213.28Zm38.44,18.57a6.91,6.91,0,0,1-13.6,0Zm-17.42,0a6.92,6.92,0,0,1-13.62,0Zm-31,0h13.62a6.92,6.92,0,0,1-13.62,0Zm26.48,38.23H227.91v-19.4a2.56,2.56,0,0,1,2.56-2.56h5.23a2.56,2.56,0,0,1,2.56,2.56v19.4Zm33.21,0H241.84v-19.4a6.17,6.17,0,0,0-6.16-6.16h-5.22a6.17,6.17,0,0,0-6.16,6.16v19.41h-6.37v-29h.63a10.5,10.5,0,0,0,8.72-4.64,10.5,10.5,0,0,0,17.43,0,10.49,10.49,0,0,0,17.41,0,10.5,10.5,0,0,0,8.72,4.64h.61v28.94Zm-.61-32.52a6.91,6.91,0,0,1-6.8-5.69h13.61A6.94,6.94,0,0,1,270.84,240.59Z" transform="translate(-208.05 -212.7)"/></svg>