<svg id="Capa_1" data-name="Capa 1" xmlns="http://www.w3.org/2000/svg" viewBox="0 0 77.78 64"><defs><style>.cls-1{fill:#9b0814;}</style></defs><title>website</title><path class="cls-1" d="M282.3,213H207.7a1.59,1.59,0,0,0-1.59,1.59v60.82A1.59,1.59,0,0,0,207.7,277h74.6a1.59,1.59,0,0,0,1.59-1.59V214.59A1.59,1.59,0,0,0,282.3,213Zm-1.58,3.17v9.56H209.28v-9.56Zm-71.44,57.66V228.91h71.44v44.92Z" transform="translate(-206.11 -213)"/><path class="cls-1" d="M230.89,236.9h-12.7a1.59,1.59,0,0,0-1.59,1.58v12.86a1.59,1.59,0,0,0,1.59,1.59h12.7a1.59,1.59,0,0,0,1.58-1.59V238.48A1.58,1.58,0,0,0,230.89,236.9Zm-1.59,12.85h-9.52v-9.68h9.52Z" transform="translate(-206.11 -213)"/><path class="cls-1" d="M238.54,252.93h12.69a1.59,1.59,0,0,0,1.59-1.59V238.48a1.59,1.59,0,0,0-1.59-1.58H238.54a1.59,1.59,0,0,0-1.59,1.58v12.86A1.59,1.59,0,0,0,238.54,252.93Zm1.58-12.86h9.52v9.68h-9.52Z" transform="translate(-206.11 -213)"/><path class="cls-1" d="M258.88,252.93h12.7a1.59,1.59,0,0,0,1.58-1.59V238.48a1.58,1.58,0,0,0-1.58-1.58h-12.7a1.59,1.59,0,0,0-1.59,1.58v12.86A1.59,1.59,0,0,0,258.88,252.93Zm1.59-12.86H270v9.68h-9.52Z" transform="translate(-206.11 -213)"/><path class="cls-1" d="M230.89,257h-12.7a1.59,1.59,0,1,0,0,3.17h12.7a1.59,1.59,0,0,0,0-3.17Z" transform="translate(-206.11 -213)"/><path class="cls-1" d="M230.89,262.83h-12.7a1.59,1.59,0,1,0,0,3.17h12.7a1.59,1.59,0,0,0,0-3.17Z" transform="translate(-206.11 -213)"/><path class="cls-1" d="M251.35,257h-12.7a1.59,1.59,0,0,0,0,3.17h12.7a1.59,1.59,0,0,0,0-3.17Z" transform="translate(-206.11 -213)"/><path class="cls-1" d="M251.35,262.83h-12.7a1.59,1.59,0,0,0,0,3.17h12.7a1.59,1.59,0,0,0,0-3.17Z" transform="translate(-206.11 -213)"/><path class="cls-1" d="M271.81,257h-12.7a1.59,1.59,0,0,0,0,3.17h12.7a1.59,1.59,0,1,0,0-3.17Z" transform="translate(-206.11 -213)"/><path class="cls-1" d="M271.81,262.83h-12.7a1.59,1.59,0,0,0,0,3.17h12.7a1.59,1.59,0,1,0,0-3.17Z" transform="translate(-206.11 -213)"/><path class="cls-1" d="M218.19,222.51H219a1.59,1.59,0,0,0,0-3.18h-.79a1.59,1.59,0,0,0,0,3.18Z" transform="translate(-206.11 -213)"/><path class="cls-1" d="M224.77,222.51h.79a1.59,1.59,0,1,0,0-3.18h-.79a1.59,1.59,0,0,0,0,3.18Z" transform="translate(-206.11 -213)"/><path class="cls-1" d="M231.36,222.51h.78a1.59,1.59,0,1,0,0-3.18h-.78a1.59,1.59,0,0,0,0,3.18Z" transform="translate(-206.11 -213)"/></svg>